PathFileType	4	(X/Y/Z)	./resultDataOpenSim/trcMotMarkerGrf/sub09/qtm-03-07.trc
DataRate	CameraRate	NumFrames	NumMarkers	Units	OrigDataRate	OrigDataStartFrame	OrigNumFrames
250.000000	250.000000	5	24	m	250.000000	185	491
Frame#	Time	L.Toe.Tip			R.Toe.Tip			L.Ankle.Lat			R.Ankle.Lat			L.Ankle.Med			R.Ankle.Med			L.Heel			R.Heel			L.Knee.Lat			R.Knee.Lat			L.Knee.Med			R.Knee.Med			L.Thigh.Upper			R.Thigh.Upper			L.ASIS			R.ASIS			V.Sacral			L.Acromium			R.Acromium			C7			L.Elbow			R.Elbow			L.Wrist.Lat			R.Wrist.Lat
		X1	Y1	Z1	X2	Y2	Z2	X3	Y3	Z3	X4	Y4	Z4	X5	Y5	Z5	X6	Y6	Z6	X7	Y7	Z7	X8	Y8	Z8	X9	Y9	Z9	X10	Y10	Z10	X11	Y11	Z11	X12	Y12	Z12	X13	Y13	Z13	X14	Y14	Z14	X15	Y15	Z15	X16	Y16	Z16	X17	Y17	Z17	X18	Y18	Z18	X19	Y19	Z19	X20	Y20	Z20	X21	Y21	Z21	X22	Y22	Z22	X23	Y23	Z23	X24	Y24	Z24

185	0.736	0.13116661	-0.010299864	-0.0032716109	-0.6178448	0.06541701	0.06897771	-0.016185094	0.023128218	-0.058236109	-0.65709043	0.21259103	0.10728359	-0.002553252	0.044751107	0.037919406	-0.60610196	0.20820687	0.023379812	-0.089069635	-0.012015764	-0.016842185	-0.69784067	0.25534905	0.045856041	0.021416036	0.43630528	-0.11793322	-0.25502423	0.40555676	0.18778495	0.019037194	0.44127149	0.0061974397	-0.24410727	0.38004585	0.060574258	-0.16678715	0.81751971	-0.16795748	-0.22424202	0.79559059	0.2051335	-0.10346735	0.90495098	-0.096846684	-0.11324918	0.88408684	0.14282737	-0.2795639	0.94127672	0.013216066	-0.14786082	1.3440643	-0.15104104	-0.16370144	1.3563943	0.18016576	-0.22177574	1.3975299	0.012476078	-0.29092703	1.00999	-0.19561043	-0.27594165	0.99675094	0.26942621	-0.22477373	0.77015915	-0.27201941	-0.039365059	0.84954844	0.24168618
186	0.74	0.13109121	-0.01027228	-0.0034608442	-0.61074463	0.067825392	0.070301831	-0.015993624	0.022686823	-0.058374093	-0.64592008	0.21647157	0.10808121	-0.0023896111	0.044643607	0.037741987	-0.59477076	0.21120075	0.024338999	-0.089117812	-0.01216451	-0.016856056	-0.68543137	0.26079098	0.047065302	0.024405017	0.43480899	-0.11846724	-0.2425694	0.40451593	0.18819009	0.023768075	0.43967992	0.0050530446	-0.23166905	0.37916921	0.060715445	-0.16104354	0.81746989	-0.16804213	-0.2181501	0.79544492	0.2048393	-0.097491312	0.9055212	-0.097266927	-0.10740985	0.88424355	0.14261659	-0.27344139	0.94136833	0.012534356	-0.14090622	1.3444584	-0.15095912	-0.15669408	1.3567269	0.18016872	-0.21505525	1.3978331	0.012523224	-0.28309759	1.0098984	-0.19577458	-0.27065957	0.99782447	0.26922293	-0.2154057	0.77027691	-0.27162619	-0.036023754	0.84767896	0.24230612
187	0.744	0.13101713	-0.010243832	-0.0036451267	-0.6025435	0.070417518	0.071916744	-0.015771791	0.022275138	-0.05847742	-0.63452495	0.22017019	0.10882983	-0.0022279597	0.044532006	0.037613293	-0.58325723	0.2142418	0.025168355	-0.089169142	-0.012287256	-0.016800875	-0.67277672	0.2659467	0.04817194	0.027078566	0.43339892	-0.11910724	-0.23006292	0.40361306	0.18847219	0.028087244	0.43805402	0.0040407497	-0.2192469	0.37857464	0.060712642	-0.15525359	0.81741468	-0.16813673	-0.21187354	0.79543252	0.20435188	-0.091531974	0.90599674	-0.097590789	-0.10170435	0.88450293	0.14250901	-0.26697165	0.94186993	0.012316379	-0.13400207	1.3449294	-0.15086961	-0.14977523	1.3571101	0.18018971	-0.20836508	1.39822	0.012549284	-0.27533561	1.0098699	-0.19609336	-0.26534654	0.9989366	0.26912243	-0.20590365	0.77049456	-0.271154	-0.032783985	0.84585878	0.24292601
188	0.748	0.13094608	-0.010214765	-0.003819096	-0.59316866	0.073174178	0.073829457	-0.015543649	0.021897107	-0.058544957	-0.62289482	0.2237613	0.10951228	-0.0020656464	0.04441515	0.037530108	-0.57160776	0.21743179	0.025820465	-0.089224404	-0.012392985	-0.016690657	-0.66011334	0.27085339	0.049180733	0.029615336	0.43204656	-0.11990316	-0.21752962	0.40289509	0.18864261	0.031970305	0.43653398	0.0031602086	-0.20684648	0.37828142	0.060646706	-0.14940751	0.81743312	-0.16827879	-0.20545181	0.79550193	0.2037267	-0.085549525	0.90639492	-0.097818848	-0.09612861	0.8848686	0.14248595	-0.26041088	0.94263691	0.012525495	-0.12714794	1.3454737	-0.150774	-0.14297078	1.3575482	0.18022003	-0.20173345	1.3987137	0.01255527	-0.26764414	1.0099071	-0.19654981	-0.26000024	1.0000845	0.26910137	-0.19630827	0.77080819	-0.27061584	-0.029538338	0.84408694	0.24352066
189	0.752	0.1308804	-0.010184999	-0.0039804284	-0.58269216	0.076071879	0.075963223	-0.015345062	0.02154742	-0.058577865	-0.61100486	0.22730771	0.11010102	-0.0019057354	0.044292391	0.037488962	-0.55983754	0.22081006	0.026281775	-0.089282098	-0.012488263	-0.016543743	-0.64758518	0.27544876	0.050030209	0.032100642	0.43075946	-0.1207473	-0.2049856	0.40240245	0.18871647	0.035471432	0.43526112	0.0024511254	-0.19450628	0.37829399	0.060652661	-0.14351964	0.81759694	-0.16846085	-0.19904685	0.79561232	0.20306585	-0.0795367	0.90674156	-0.097966948	-0.090671097	0.885342	0.14252099	-0.25405441	0.94346117	0.012901479	-0.1203305	1.3460882	-0.15066522	-0.13629631	1.3580483	0.18025675	-0.19517296	1.3993318	0.012547593	-0.26002106	1.0100176	-0.19703099	-0.2546409	1.0012686	0.26914767	-0.18665303	0.77121171	-0.27002713	-0.026275124	0.84236806	0.24409166
